<svg xmlns="http://www.w3.org/2000/svg" viewBox="0 0 900 520" role="img" aria-labelledby="title desc">
  <title id="title">Hyper Fishies hand drawn title</title>
  <desc id="desc">Transparent hand drawn style Hyper Fishies logo inspired by David's sketch.</desc>
  <defs>
    <filter id="ink" x="-10%" y="-10%" width="120%" height="120%">
      <feDropShadow dx="4" dy="6" stdDeviation="0" flood-color="#071923" flood-opacity="0.35"/>
    </filter>
    <linearGradient id="paperFill" x1="0" y1="0" x2="0" y2="1">
      <stop offset="0" stop-color="#fffdf1"/>
      <stop offset="1" stop-color="#d9fff8"/>
    </linearGradient>
    <linearGradient id="blueFill" x1="0" y1="0" x2="0" y2="1">
      <stop offset="0" stop-color="#b7fff8"/>
      <stop offset="1" stop-color="#4cd3ff"/>
    </linearGradient>
  </defs>

  <g fill="url(#paperFill)" stroke="#071923" stroke-width="8" stroke-linejoin="round" stroke-linecap="round" filter="url(#ink)">
    <path d="M73 92 L143 70 L151 265 L93 285 L88 204 L54 213 L49 291 L14 272 L24 112 Z"/>
    <path d="M90 169 L147 153" fill="none"/>
    <path d="M160 105 C192 91 222 96 247 116 L222 194 L223 286 L174 307 L185 204 Z"/>
    <path d="M180 112 L214 182 L238 114" fill="none"/>
    <path d="M184 217 L224 212" fill="none"/>
    <path d="M266 79 L380 99 L349 155 L391 194 L326 212 L318 295 L248 301 L258 210 L207 176 Z"/>
    <path d="M245 125 L311 184 L359 127" fill="none"/>
    <path d="M296 211 L277 286" fill="none"/>
    <path d="M408 76 L516 91 C561 101 578 140 560 180 C545 216 506 226 463 220 L456 296 L397 286 Z"/>
    <path d="M467 126 C505 129 521 143 514 160 C507 179 486 184 463 179 Z" fill="#9df7ff"/>
    <path d="M405 179 L366 207" fill="none"/>
    <path d="M407 217 L370 246" fill="none"/>
    <path d="M583 88 L721 78 L700 126 L631 131 L630 165 L694 155 L675 203 L626 213 L624 249 L710 234 L688 295 L562 306 Z"/>
    <path d="M628 146 L682 137 M622 224 L676 213" fill="none"/>
    <path d="M739 80 L818 88 C864 94 887 122 875 160 C866 190 844 204 814 208 L883 294 L815 288 L775 222 L768 300 L715 286 Z"/>
    <path d="M780 122 C815 126 830 139 824 157 C819 174 800 181 778 176 Z" fill="#9df7ff"/>
    <path d="M795 83 L823 48 L854 74" fill="none"/>
  </g>

  <g fill="none" stroke="#071923" stroke-width="5" stroke-linecap="round" stroke-linejoin="round">
    <path d="M340 320 l28 -28 l28 28 l-28 28 z" fill="#fff9bc"/>
    <path d="M188 348 c17 -12 39 -12 56 0 c-17 14 -39 14 -56 0 z"/>
    <path d="M470 344 c19 -13 42 -13 60 1 c-20 14 -42 13 -60 -1 z"/>
    <path d="M621 334 c20 -14 45 -13 65 3 c-22 13 -45 12 -65 -3 z"/>
  </g>

  <g fill="#f7fff9" stroke="#071923" stroke-width="4" stroke-linecap="round" stroke-linejoin="round" filter="url(#ink)">
    <path d="M178 390 c16 -48 42 -58 53 -14 c8 33 -8 76 -29 92" fill="none"/>
    <path d="M255 372 c22 -22 58 -14 61 18 c5 35 -31 28 -45 45 c-14 18 19 31 45 12" fill="none"/>
    <path d="M349 352 l-16 118 M346 408 c28 -33 70 -17 58 31 l-8 28" fill="none"/>
    <path d="M441 374 l-13 94 M448 337 l-3 4" fill="none"/>
    <path d="M487 382 c27 -25 62 -11 62 18 c0 38 -53 27 -63 45 c-8 15 20 23 54 10" fill="none"/>
    <path d="M588 382 c26 -25 62 -11 62 18 c0 38 -52 27 -63 45 c-8 15 20 23 54 10" fill="none"/>
  </g>

  <g fill="#071923" font-family="'Comic Sans MS','Segoe Print',cursive" font-weight="800" letter-spacing="2">
    <text x="390" y="480" font-size="26">BY DAVID</text>
    <text x="360" y="510" font-size="26">&amp; LUCAS TAN  &amp; VALERIUS KOH</text>
  </g>
</svg>